
<svg version="1.0" xmlns="http://www.w3.org/2000/svg"
 width="300.000000pt" height="300.000000pt"  viewBox="0 0 300.000000 300.000000"
 preserveAspectRatio="xMidYMid meet">

<g transform="translate(0.000000,300.000000) scale(0.100000,-0.100000)"
fill="white" stroke="none">
<path d="M1275 2885 c-633 -103 -1127 -591 -1228 -1215 -49 -301 -16 -567 105
-844 43 -98 126 -236 143 -236 18 0 626 179 768 226 60 20 105 40 100 44 -4 4
-71 19 -148 35 -77 15 -152 33 -167 41 -43 22 -68 66 -68 119 0 55 21 95 64
121 28 17 61 19 366 24 l336 5 -219 194 -219 194 -60 -21 -60 -22 -63 22 -64
22 -65 -21 -66 -21 -66 21 -65 21 -64 -22 -64 -22 -70 26 -70 26 -103 -75
-103 -76 -3 32 c-9 80 -12 76 308 315 165 122 309 222 320 222 11 0 37 -15 57
-33 21 -19 158 -140 305 -270 147 -130 271 -237 277 -237 5 0 140 99 300 220
160 121 300 220 310 220 28 0 769 -507 776 -532 8 -23 -19 -58 -45 -58 -9 0
-96 54 -193 121 l-178 121 -54 -23 -55 -23 -55 23 -56 23 -59 -22 -60 -22 -55
22 -55 22 -55 -22 -55 -22 -60 22 -60 22 -109 -82 -110 -82 75 -65 c92 -81
101 -96 79 -129 l-15 -24 47 0 c68 0 297 -27 433 -51 301 -53 550 -142 712
-255 l62 -43 23 57 c64 156 97 339 96 532 -2 700 -482 1288 -1176 1441 -124
27 -395 34 -522 14z m151 -405 c63 -38 119 -70 126 -70 6 0 51 28 101 61 81
56 93 61 128 56 51 -7 69 -22 69 -59 0 -47 -15 -64 -113 -129 -51 -34 -93 -63
-95 -64 -2 -2 6 -58 18 -126 11 -68 22 -134 24 -147 5 -30 2 -27 -75 88 -35
52 -67 99 -71 104 -3 5 -44 -13 -91 -39 -74 -41 -86 -52 -91 -80 -4 -18 -15
-40 -25 -49 -19 -17 -22 -14 -80 73 -34 50 -61 95 -61 100 0 15 37 23 71 16
26 -6 40 1 104 49 41 31 75 61 75 67 0 5 -32 57 -70 114 -39 58 -68 105 -65
105 4 0 58 -31 121 -70z"/>
<path d="M595 1798 c-82 -60 -154 -113 -159 -118 -4 -4 1 -13 11 -19 15 -8 36
-4 88 14 l68 24 63 -24 62 -23 64 23 64 23 64 -22 c36 -13 73 -20 84 -16 15 5
-6 27 -110 121 -71 63 -133 118 -139 121 -5 3 -77 -43 -160 -104z"/>
<path d="M1890 1731 c-132 -100 -145 -124 -45 -81 58 25 72 25 129 0 46 -19
47 -19 97 0 62 25 75 25 134 -1 25 -11 48 -19 51 -17 5 5 -242 178 -253 178
-5 0 -55 -36 -113 -79z"/>
<path d="M937 1103 c-40 -4 -50 -8 -60 -30 -19 -43 10 -55 239 -102 115 -23
219 -49 231 -57 15 -9 23 -24 23 -43 0 -57 -123 -105 -771 -296 -607 -179
-557 -163 -569 -186 -14 -25 4 -59 31 -59 31 0 1058 305 1162 346 128 49 204
92 242 137 27 32 37 37 52 29 28 -16 47 -56 39 -88 -31 -120 -470 -354 -989
-524 -165 -55 -188 -70 -167 -110 6 -11 21 -20 34 -20 63 0 615 208 800 302
83 42 225 131 286 179 175 139 164 289 -29 377 -31 14 -69 34 -86 45 l-30 18
120 -6 c411 -21 623 -68 818 -183 191 -112 245 -239 168 -397 -27 -54 -58 -94
-138 -174 -86 -86 -103 -109 -101 -130 2 -21 9 -27 34 -29 28 -3 42 7 121 85
243 238 273 434 95 616 l-57 58 50 -21 c341 -145 459 -333 376 -601 -22 -69
-13 -93 34 -87 24 3 31 10 47 58 34 99 41 186 24 268 -21 102 -51 156 -126
233 -218 222 -608 344 -1250 389 -136 9 -546 11 -653 3z"/>
<path d="M1602 988 c-19 -19 -14 -56 8 -68 30 -16 90 -16 101 1 12 20 11 45
-3 57 -22 17 -92 24 -106 10z"/>
<path d="M1839 899 c-10 -10 -19 -23 -19 -28 0 -15 104 -111 121 -111 22 0 39
21 39 49 0 15 -14 38 -39 61 -49 47 -76 55 -102 29z"/>
<path d="M1871 592 c-35 -52 -38 -61 -27 -83 6 -13 19 -25 27 -27 21 -4 71 46
93 93 23 47 14 75 -24 75 -24 0 -36 -10 -69 -58z"/>
<path d="M1666 388 c-44 -33 -56 -47 -56 -69 0 -27 15 -39 48 -39 28 0 112 79
112 104 0 24 -17 46 -36 46 -6 0 -37 -19 -68 -42z"/>
<path d="M1439 227 c-39 -26 -45 -62 -14 -83 18 -12 25 -11 52 6 47 28 58 55
33 80 -25 25 -30 25 -71 -3z"/>
</g>
</svg>
